<mxfile host="app.diagrams.net" modified="2023-10-09T01:39:34.885Z" agent="Mozilla/5.0 (Macintosh; Intel Mac OS X 10_15_7) AppleWebKit/537.36 (KHTML, like Gecko) Chrome/116.0.0.0 Safari/537.36" etag="KpHyCw8b1TK46xmIEDCl" version="22.0.4" type="github">
  <diagram id="C5RBs43oDa-KdzZeNtuy" name="Page-1">
    <mxGraphModel dx="1680" dy="436" grid="1" gridSize="10" guides="1" tooltips="1" connect="1" arrows="1" fold="1" page="1" pageScale="1" pageWidth="827" pageHeight="1169" math="0" shadow="0">
      <root>
        <mxCell id="WIyWlLk6GJQsqaUBKTNV-0" />
        <mxCell id="WIyWlLk6GJQsqaUBKTNV-1" parent="WIyWlLk6GJQsqaUBKTNV-0" />
        <mxCell id="Gu5U-ljITWQeZd8yUGla-80" value="" style="group" parent="WIyWlLk6GJQsqaUBKTNV-1" vertex="1" connectable="0">
          <mxGeometry x="-410" width="850" height="1155" as="geometry" />
        </mxCell>
        <mxCell id="WIyWlLk6GJQsqaUBKTNV-3" value="number_purchased = int(input(&#39;Enter the number of packages purchased: &#39;))" style="rounded=0;html=1;fontSize=12;glass=0;strokeWidth=1;shadow=0;verticalAlign=middle;whiteSpace=wrap;shape=parallelogram;perimeter=parallelogramPerimeter;fixedSize=1;" parent="Gu5U-ljITWQeZd8yUGla-80" vertex="1">
          <mxGeometry x="465" y="210" width="190" height="60" as="geometry" />
        </mxCell>
        <mxCell id="WIyWlLk6GJQsqaUBKTNV-6" value="number_purchased &amp;lt; 10" style="rhombus;html=1;shadow=0;fontFamily=Helvetica;fontSize=12;align=center;strokeWidth=1;spacing=6;spacingTop=-4;verticalAlign=middle;whiteSpace=wrap;" parent="Gu5U-ljITWQeZd8yUGla-80" vertex="1">
          <mxGeometry x="520" y="320" width="80" height="80" as="geometry" />
        </mxCell>
        <mxCell id="Gu5U-ljITWQeZd8yUGla-71" style="edgeStyle=orthogonalEdgeStyle;rounded=0;orthogonalLoop=1;jettySize=auto;html=1;entryX=0.5;entryY=0;entryDx=0;entryDy=0;" parent="Gu5U-ljITWQeZd8yUGla-80" source="WIyWlLk6GJQsqaUBKTNV-3" target="WIyWlLk6GJQsqaUBKTNV-6" edge="1">
          <mxGeometry relative="1" as="geometry" />
        </mxCell>
        <mxCell id="WIyWlLk6GJQsqaUBKTNV-7" value="discount =0" style="rounded=0;html=1;fontSize=12;glass=0;strokeWidth=1;shadow=0;verticalAlign=middle;whiteSpace=wrap;" parent="Gu5U-ljITWQeZd8yUGla-80" vertex="1">
          <mxGeometry x="670" y="340" width="120" height="40" as="geometry" />
        </mxCell>
        <mxCell id="Gu5U-ljITWQeZd8yUGla-14" value="True" style="edgeStyle=orthogonalEdgeStyle;rounded=0;orthogonalLoop=1;jettySize=auto;html=1;verticalAlign=middle;" parent="Gu5U-ljITWQeZd8yUGla-80" source="WIyWlLk6GJQsqaUBKTNV-6" target="WIyWlLk6GJQsqaUBKTNV-7" edge="1">
          <mxGeometry relative="1" as="geometry" />
        </mxCell>
        <mxCell id="WIyWlLk6GJQsqaUBKTNV-10" value="number_purchased &amp;lt; 50" style="rhombus;html=1;shadow=0;fontFamily=Helvetica;fontSize=12;align=center;strokeWidth=1;spacing=6;spacingTop=-4;verticalAlign=middle;whiteSpace=wrap;" parent="Gu5U-ljITWQeZd8yUGla-80" vertex="1">
          <mxGeometry x="400" y="380" width="80" height="80" as="geometry" />
        </mxCell>
        <mxCell id="Gu5U-ljITWQeZd8yUGla-15" value="False" style="edgeStyle=orthogonalEdgeStyle;rounded=0;orthogonalLoop=1;jettySize=auto;html=1;verticalAlign=middle;entryX=0.5;entryY=0;entryDx=0;entryDy=0;" parent="Gu5U-ljITWQeZd8yUGla-80" source="WIyWlLk6GJQsqaUBKTNV-6" target="WIyWlLk6GJQsqaUBKTNV-10" edge="1">
          <mxGeometry x="0.2" relative="1" as="geometry">
            <Array as="points">
              <mxPoint x="440" y="360" />
            </Array>
            <mxPoint as="offset" />
          </mxGeometry>
        </mxCell>
        <mxCell id="WIyWlLk6GJQsqaUBKTNV-12" value="discount =.1" style="rounded=0;html=1;fontSize=12;glass=0;strokeWidth=1;shadow=0;verticalAlign=middle;whiteSpace=wrap;" parent="Gu5U-ljITWQeZd8yUGla-80" vertex="1">
          <mxGeometry x="670" y="400" width="120" height="40" as="geometry" />
        </mxCell>
        <mxCell id="Gu5U-ljITWQeZd8yUGla-13" value="True" style="edgeStyle=orthogonalEdgeStyle;rounded=0;orthogonalLoop=1;jettySize=auto;html=1;verticalAlign=middle;" parent="Gu5U-ljITWQeZd8yUGla-80" source="WIyWlLk6GJQsqaUBKTNV-10" target="WIyWlLk6GJQsqaUBKTNV-12" edge="1">
          <mxGeometry relative="1" as="geometry" />
        </mxCell>
        <mxCell id="Gu5U-ljITWQeZd8yUGla-38" value="True" style="edgeStyle=orthogonalEdgeStyle;rounded=0;orthogonalLoop=1;jettySize=auto;html=1;" parent="Gu5U-ljITWQeZd8yUGla-80" source="Gu5U-ljITWQeZd8yUGla-0" edge="1">
          <mxGeometry x="-0.0017" relative="1" as="geometry">
            <mxPoint x="670" y="480" as="targetPoint" />
            <mxPoint as="offset" />
          </mxGeometry>
        </mxCell>
        <mxCell id="Gu5U-ljITWQeZd8yUGla-0" value="number_purchased&amp;nbsp; &amp;lt; 100" style="rhombus;html=1;verticalAlign=middle;whiteSpace=wrap;" parent="Gu5U-ljITWQeZd8yUGla-80" vertex="1">
          <mxGeometry x="290" y="440" width="80" height="80" as="geometry" />
        </mxCell>
        <mxCell id="Gu5U-ljITWQeZd8yUGla-35" value="False" style="edgeStyle=orthogonalEdgeStyle;rounded=0;orthogonalLoop=1;jettySize=auto;html=1;entryX=0.5;entryY=0;entryDx=0;entryDy=0;" parent="Gu5U-ljITWQeZd8yUGla-80" source="WIyWlLk6GJQsqaUBKTNV-10" target="Gu5U-ljITWQeZd8yUGla-0" edge="1">
          <mxGeometry relative="1" as="geometry" />
        </mxCell>
        <mxCell id="Gu5U-ljITWQeZd8yUGla-1" value="number_purchased &amp;lt; 150" style="rhombus;html=1;verticalAlign=middle;whiteSpace=wrap;" parent="Gu5U-ljITWQeZd8yUGla-80" vertex="1">
          <mxGeometry x="160" y="510" width="80" height="80" as="geometry" />
        </mxCell>
        <mxCell id="Gu5U-ljITWQeZd8yUGla-39" value="False" style="edgeStyle=orthogonalEdgeStyle;rounded=0;orthogonalLoop=1;jettySize=auto;html=1;entryX=0.5;entryY=0;entryDx=0;entryDy=0;" parent="Gu5U-ljITWQeZd8yUGla-80" source="Gu5U-ljITWQeZd8yUGla-0" target="Gu5U-ljITWQeZd8yUGla-1" edge="1">
          <mxGeometry relative="1" as="geometry" />
        </mxCell>
        <mxCell id="Gu5U-ljITWQeZd8yUGla-3" value="discount =.2" style="rounded=0;html=1;verticalAlign=middle;whiteSpace=wrap;" parent="Gu5U-ljITWQeZd8yUGla-80" vertex="1">
          <mxGeometry x="670" y="460" width="120" height="40" as="geometry" />
        </mxCell>
        <mxCell id="Gu5U-ljITWQeZd8yUGla-7" value="discount =.3" style="rounded=0;html=1;verticalAlign=middle;whiteSpace=wrap;" parent="Gu5U-ljITWQeZd8yUGla-80" vertex="1">
          <mxGeometry x="670" y="530" width="120" height="40" as="geometry" />
        </mxCell>
        <mxCell id="Gu5U-ljITWQeZd8yUGla-41" value="True" style="edgeStyle=orthogonalEdgeStyle;rounded=0;orthogonalLoop=1;jettySize=auto;html=1;entryX=0;entryY=0.5;entryDx=0;entryDy=0;" parent="Gu5U-ljITWQeZd8yUGla-80" source="Gu5U-ljITWQeZd8yUGla-1" target="Gu5U-ljITWQeZd8yUGla-7" edge="1">
          <mxGeometry relative="1" as="geometry" />
        </mxCell>
        <mxCell id="Gu5U-ljITWQeZd8yUGla-9" value="discount= .4" style="rounded=0;html=1;verticalAlign=middle;whiteSpace=wrap;" parent="Gu5U-ljITWQeZd8yUGla-80" vertex="1">
          <mxGeometry y="570" width="120" height="35.5" as="geometry" />
        </mxCell>
        <mxCell id="Gu5U-ljITWQeZd8yUGla-17" value="print(f&#39;Discount Amount: ${discount_amount:.2f&lt;span style=&quot;background-color: initial;&quot;&gt;}&#39;)&lt;/span&gt;" style="rounded=0;html=1;verticalAlign=middle;whiteSpace=wrap;shape=parallelogram;perimeter=parallelogramPerimeter;fixedSize=1;" parent="Gu5U-ljITWQeZd8yUGla-80" vertex="1">
          <mxGeometry x="482.5" y="930" width="165" height="60" as="geometry" />
        </mxCell>
        <mxCell id="Gu5U-ljITWQeZd8yUGla-43" value="False" style="edgeStyle=orthogonalEdgeStyle;rounded=0;orthogonalLoop=1;jettySize=auto;html=1;entryX=0.5;entryY=0;entryDx=0;entryDy=0;" parent="Gu5U-ljITWQeZd8yUGla-80" source="Gu5U-ljITWQeZd8yUGla-1" target="Gu5U-ljITWQeZd8yUGla-9" edge="1">
          <mxGeometry relative="1" as="geometry" />
        </mxCell>
        <mxCell id="Gu5U-ljITWQeZd8yUGla-19" value="print(f&#39;Total Amount: ${total_amount:.2f}&#39;)" style="rounded=0;html=1;verticalAlign=middle;whiteSpace=wrap;shape=parallelogram;perimeter=parallelogramPerimeter;fixedSize=1;" parent="Gu5U-ljITWQeZd8yUGla-80" vertex="1">
          <mxGeometry x="480" y="1020" width="170" height="65" as="geometry" />
        </mxCell>
        <mxCell id="Gu5U-ljITWQeZd8yUGla-20" value="" style="edgeStyle=orthogonalEdgeStyle;rounded=0;orthogonalLoop=1;jettySize=auto;html=1;verticalAlign=middle;" parent="Gu5U-ljITWQeZd8yUGla-80" source="Gu5U-ljITWQeZd8yUGla-17" target="Gu5U-ljITWQeZd8yUGla-19" edge="1">
          <mxGeometry relative="1" as="geometry" />
        </mxCell>
        <mxCell id="Gu5U-ljITWQeZd8yUGla-32" value="" style="edgeStyle=orthogonalEdgeStyle;rounded=0;orthogonalLoop=1;jettySize=auto;html=1;" parent="Gu5U-ljITWQeZd8yUGla-80" source="Gu5U-ljITWQeZd8yUGla-72" target="WIyWlLk6GJQsqaUBKTNV-3" edge="1">
          <mxGeometry relative="1" as="geometry" />
        </mxCell>
        <mxCell id="Gu5U-ljITWQeZd8yUGla-31" value="Start" style="rounded=1;whiteSpace=wrap;html=1;" parent="Gu5U-ljITWQeZd8yUGla-80" vertex="1">
          <mxGeometry x="500" width="120" height="40" as="geometry" />
        </mxCell>
        <mxCell id="Gu5U-ljITWQeZd8yUGla-34" style="edgeStyle=orthogonalEdgeStyle;rounded=0;orthogonalLoop=1;jettySize=auto;html=1;exitX=0;exitY=0.5;exitDx=0;exitDy=0;entryX=0;entryY=0.75;entryDx=0;entryDy=0;" parent="Gu5U-ljITWQeZd8yUGla-80" source="Gu5U-ljITWQeZd8yUGla-3" target="Gu5U-ljITWQeZd8yUGla-3" edge="1">
          <mxGeometry relative="1" as="geometry" />
        </mxCell>
        <mxCell id="Gu5U-ljITWQeZd8yUGla-53" value="" style="endArrow=none;html=1;rounded=0;entryX=0.5;entryY=1;entryDx=0;entryDy=0;" parent="Gu5U-ljITWQeZd8yUGla-80" target="Gu5U-ljITWQeZd8yUGla-9" edge="1">
          <mxGeometry width="50" height="50" relative="1" as="geometry">
            <mxPoint x="570" y="640" as="sourcePoint" />
            <mxPoint x="430" y="510" as="targetPoint" />
            <Array as="points">
              <mxPoint x="60" y="640" />
            </Array>
          </mxGeometry>
        </mxCell>
        <mxCell id="Gu5U-ljITWQeZd8yUGla-54" value="" style="endArrow=none;html=1;rounded=0;entryX=1;entryY=0.5;entryDx=0;entryDy=0;" parent="Gu5U-ljITWQeZd8yUGla-80" target="WIyWlLk6GJQsqaUBKTNV-7" edge="1">
          <mxGeometry width="50" height="50" relative="1" as="geometry">
            <mxPoint x="570" y="640" as="sourcePoint" />
            <mxPoint x="750" y="510" as="targetPoint" />
            <Array as="points">
              <mxPoint x="850" y="640" />
              <mxPoint x="850" y="360" />
            </Array>
          </mxGeometry>
        </mxCell>
        <mxCell id="Gu5U-ljITWQeZd8yUGla-56" value="" style="endArrow=none;html=1;rounded=0;entryX=1;entryY=0.5;entryDx=0;entryDy=0;" parent="Gu5U-ljITWQeZd8yUGla-80" target="WIyWlLk6GJQsqaUBKTNV-12" edge="1">
          <mxGeometry width="50" height="50" relative="1" as="geometry">
            <mxPoint x="850" y="420" as="sourcePoint" />
            <mxPoint x="620" y="510" as="targetPoint" />
          </mxGeometry>
        </mxCell>
        <mxCell id="Gu5U-ljITWQeZd8yUGla-57" value="" style="endArrow=none;html=1;rounded=0;entryX=1;entryY=0.5;entryDx=0;entryDy=0;" parent="Gu5U-ljITWQeZd8yUGla-80" target="Gu5U-ljITWQeZd8yUGla-3" edge="1">
          <mxGeometry width="50" height="50" relative="1" as="geometry">
            <mxPoint x="850" y="480" as="sourcePoint" />
            <mxPoint x="620" y="510" as="targetPoint" />
          </mxGeometry>
        </mxCell>
        <mxCell id="Gu5U-ljITWQeZd8yUGla-58" value="" style="endArrow=none;html=1;rounded=0;entryX=1;entryY=0.5;entryDx=0;entryDy=0;" parent="Gu5U-ljITWQeZd8yUGla-80" target="Gu5U-ljITWQeZd8yUGla-7" edge="1">
          <mxGeometry width="50" height="50" relative="1" as="geometry">
            <mxPoint x="850" y="550" as="sourcePoint" />
            <mxPoint x="620" y="510" as="targetPoint" />
          </mxGeometry>
        </mxCell>
        <mxCell id="Gu5U-ljITWQeZd8yUGla-59" value="End" style="whiteSpace=wrap;html=1;rounded=1;" parent="Gu5U-ljITWQeZd8yUGla-80" vertex="1">
          <mxGeometry x="505" y="1115" width="120" height="40" as="geometry" />
        </mxCell>
        <mxCell id="Gu5U-ljITWQeZd8yUGla-60" value="" style="edgeStyle=orthogonalEdgeStyle;rounded=0;orthogonalLoop=1;jettySize=auto;html=1;" parent="Gu5U-ljITWQeZd8yUGla-80" source="Gu5U-ljITWQeZd8yUGla-19" target="Gu5U-ljITWQeZd8yUGla-59" edge="1">
          <mxGeometry relative="1" as="geometry" />
        </mxCell>
        <mxCell id="Gu5U-ljITWQeZd8yUGla-70" value="Calculate dollar amount of discount&lt;br&gt;&lt;br&gt;discount_amount = (number_purchased * BASE_PRICE) * discount" style="rounded=0;whiteSpace=wrap;html=1;" parent="Gu5U-ljITWQeZd8yUGla-80" vertex="1">
          <mxGeometry x="420" y="690" width="290" height="90" as="geometry" />
        </mxCell>
        <mxCell id="Gu5U-ljITWQeZd8yUGla-73" value="" style="edgeStyle=orthogonalEdgeStyle;rounded=0;orthogonalLoop=1;jettySize=auto;html=1;" parent="Gu5U-ljITWQeZd8yUGla-80" source="Gu5U-ljITWQeZd8yUGla-31" target="Gu5U-ljITWQeZd8yUGla-72" edge="1">
          <mxGeometry relative="1" as="geometry">
            <mxPoint x="560" y="40" as="sourcePoint" />
            <mxPoint x="560" y="210" as="targetPoint" />
          </mxGeometry>
        </mxCell>
        <mxCell id="Gu5U-ljITWQeZd8yUGla-72" value="BASE_PRICE = 149" style="rounded=0;whiteSpace=wrap;html=1;" parent="Gu5U-ljITWQeZd8yUGla-80" vertex="1">
          <mxGeometry x="495" y="100" width="130" height="50" as="geometry" />
        </mxCell>
        <mxCell id="Gu5U-ljITWQeZd8yUGla-79" value="" style="edgeStyle=orthogonalEdgeStyle;rounded=0;orthogonalLoop=1;jettySize=auto;html=1;" parent="Gu5U-ljITWQeZd8yUGla-80" source="Gu5U-ljITWQeZd8yUGla-74" target="Gu5U-ljITWQeZd8yUGla-17" edge="1">
          <mxGeometry relative="1" as="geometry" />
        </mxCell>
        <mxCell id="Gu5U-ljITWQeZd8yUGla-74" value="Calculate total purchase after discount&lt;br&gt;&lt;br&gt;total_amount = (number_purchased * BASE_PRICE) - discount_amount" style="rounded=0;whiteSpace=wrap;html=1;" parent="Gu5U-ljITWQeZd8yUGla-80" vertex="1">
          <mxGeometry x="420" y="810" width="290" height="80" as="geometry" />
        </mxCell>
        <mxCell id="Gu5U-ljITWQeZd8yUGla-77" style="edgeStyle=orthogonalEdgeStyle;rounded=0;orthogonalLoop=1;jettySize=auto;html=1;exitX=0.5;exitY=1;exitDx=0;exitDy=0;entryX=0.5;entryY=0;entryDx=0;entryDy=0;" parent="Gu5U-ljITWQeZd8yUGla-80" source="Gu5U-ljITWQeZd8yUGla-70" target="Gu5U-ljITWQeZd8yUGla-74" edge="1">
          <mxGeometry relative="1" as="geometry" />
        </mxCell>
        <mxCell id="Gu5U-ljITWQeZd8yUGla-76" value="" style="endArrow=classic;html=1;rounded=0;entryX=0.5;entryY=0;entryDx=0;entryDy=0;" parent="Gu5U-ljITWQeZd8yUGla-80" target="Gu5U-ljITWQeZd8yUGla-70" edge="1">
          <mxGeometry width="50" height="50" relative="1" as="geometry">
            <mxPoint x="565" y="640" as="sourcePoint" />
            <mxPoint x="570" y="640" as="targetPoint" />
          </mxGeometry>
        </mxCell>
      </root>
    </mxGraphModel>
  </diagram>
</mxfile>
